<?xml version="1.0" encoding="iso-8859-1"?>
<!-- Generator: Adobe Illustrator 21.0.0, SVG Export Plug-In . SVG Version: 6.00 Build 0)  -->
<svg xmlns="http://www.w3.org/2000/svg" xmlns:xlink="http://www.w3.org/1999/xlink" version="1.1" id="Capa_1" x="0px" y="0px" viewBox="0 0 512.002 512.002" style="enable-background:new 0 0 512.002 512.002;" xml:space="preserve">
<g>
	<path style="fill:#7DC32E;" d="M256.74,163.326c-1.251-1.922-3.313-3.166-5.597-3.376c-45.323-4.176-88.208,24.274-101.972,67.65   c-7.77,24.486-5.65,50.604,5.968,73.542c11.632,22.967,31.477,40.14,55.856,48.35l0.251,0.084c1.369,0.457,2.753,0.678,4.111,0.678   c4.222,0,8.176-2.137,10.557-5.942c3.124-4.993,2.426-11.42-1.697-15.63c-21.862-22.32-29.254-54.563-19.292-84.146   c6.981-20.731,21.593-37.561,41.143-47.387c1.765-0.887,3.109-2.436,3.74-4.308l7.755-23.029   C258.294,167.637,257.991,165.248,256.74,163.326z"/>
	<path style="fill:#A2DB18;" d="M421.423,26.684l-0.261-0.205c-26.048-20.316-58.46-29.423-91.28-25.642   c-32.773,3.777-62.236,19.972-82.959,45.601c-17.993,22.252-27.842,50.333-27.733,79.068c0.107,28.349,9.835,56.029,27.391,77.941   c1.424,1.777,3.578,2.811,5.853,2.811c0.016,0,0.033,0,0.049,0c2.294-0.015,4.455-1.079,5.865-2.888l19.526-25.036   c1.215-1.558,1.767-3.532,1.534-5.494c-3.432-28.998,4.565-57.644,22.52-80.663c25.619-32.847,66.964-48.321,107.891-40.389   c6.616,1.284,12.938-1.972,15.734-8.099C428.321,37.625,426.655,30.785,421.423,26.684z"/>
	<path style="fill:#A2DB18;" d="M277.195,186.988c-18.427-21.184-43.927-35.695-71.802-40.86   c-28.254-5.235-57.643-0.555-82.748,13.178c-28.917,15.818-50.109,41.917-59.673,73.491c-9.577,31.612-6.401,65.134,8.952,94.411   l0.134,0.254c2.526,4.789,7.242,7.575,12.385,7.575c1.191,0,2.406-0.15,3.621-0.458c6.527-1.658,10.859-7.298,10.778-14.036   c-0.502-41.69,22.103-79.606,58.993-98.953c25.853-13.558,55.467-16.315,83.387-7.763c1.888,0.578,3.929,0.388,5.68-0.529   l28.119-14.746c2.031-1.065,3.463-3.001,3.888-5.255C279.332,191.043,278.701,188.719,277.195,186.988z"/>
	<path style="fill:#7DC32E;" d="M268.115,159.764c-5.851-27.46-21.121-52.513-43-70.541c-22.176-18.274-50.149-28.424-78.766-28.581   c-0.235-0.001-0.465-0.002-0.7-0.002c-32.698,0-63.615,12.543-87.116,35.36c-23.699,23.009-37.169,53.87-37.929,86.881   l-0.007,0.326c-0.137,6.667,4.103,12.287,10.55,13.983c1.267,0.333,2.533,0.495,3.775,0.495c5.148,0,9.882-2.769,12.456-7.548   c19.767-36.708,57.93-58.925,99.562-57.958c29.186,0.672,56.424,12.614,76.7,33.626c1.372,1.421,3.249,2.245,5.224,2.29   l31.742,0.731c2.294,0.063,4.484-0.947,5.948-2.713S268.593,162.008,268.115,159.764z"/>
	<path style="fill:#A2DB18;" d="M490.909,165.011l-0.071-0.266c-8.521-31.917-28.884-58.734-57.337-75.511   c-28.418-16.757-61.684-21.612-93.674-13.669c-27.774,6.895-52.568,23.351-69.814,46.335   c-17.014,22.676-25.952,50.621-25.167,78.687c0.064,2.292,1.174,4.43,3.012,5.801c1.31,0.977,2.886,1.489,4.485,1.489   c0.646,0,1.296-0.083,1.934-0.254l30.676-8.19c1.909-0.509,3.539-1.752,4.538-3.457c14.753-25.198,38.411-43.222,66.616-50.752   c40.247-10.744,82.555,1.85,110.415,32.865c4.503,5.013,11.512,6.231,17.436,3.031   C489.826,177.953,492.622,171.492,490.909,165.011z"/>
	<path style="fill:#7DC32E;" d="M400.244,240.198c-2.133-25.624-14.022-48.975-33.478-65.751   c-34.463-29.72-85.899-31.459-122.302-4.14c-1.834,1.376-2.938,3.517-2.996,5.81s0.937,4.486,2.7,5.954l18.678,15.543   c1.519,1.263,3.474,1.876,5.443,1.707c21.799-1.885,43.065,4.787,59.879,18.78c23.995,19.967,34.605,51.298,27.691,81.768   c-1.303,5.747,1.474,11.585,6.753,14.199c1.838,0.91,3.771,1.351,5.674,1.351c3.6,0,7.084-1.581,9.571-4.555l0.158-0.19   C394.487,290.883,402.381,265.854,400.244,240.198z"/>
	<path style="fill:#D47A3D;" d="M278.359,164.755c-0.819-1.909-2.394-3.392-4.349-4.097s-4.113-0.567-5.962,0.38l-35.325,18.093   c-1.834,0.939-3.201,2.592-3.779,4.569s-0.318,4.106,0.721,5.886c0.236,0.406,23.676,41.938,23.676,159.982   c0,60.119-17.923,97.214-32.958,117.747c-16.22,22.15-32.676,30.353-32.841,30.433c-3.142,1.519-4.823,5.006-4.05,8.412   c0.774,3.416,3.811,5.841,7.314,5.841h84.662c2.786,0,5.343-1.545,6.64-4.011c1.004-1.912,24.651-47.986,29.532-150.476   C316.523,254.959,279.92,168.391,278.359,164.755z"/>
	<g>
		<path style="fill:#6ABA0F;" d="M421.423,26.684l-0.261-0.205c-26.048-20.316-58.46-29.423-91.28-25.642    c-0.172,0.02-0.342,0.045-0.514,0.066c22.347,2.691,43.621,11.401,61.794,25.576l0.261,0.205    c5.232,4.102,6.898,10.941,4.13,17.007c-1.176,2.575-2.979,4.635-5.159,6.072c6.443,0.105,12.939,0.77,19.425,2.027    c6.616,1.284,12.938-1.972,15.734-8.099C428.321,37.625,426.655,30.785,421.423,26.684z"/>
		<path style="fill:#6ABA0F;" d="M271.927,92.178c-17.954,23.019-25.951,51.666-22.52,80.663c0.232,1.962-0.319,3.936-1.534,5.494    l-9.968,12.781c2.636,4.275,5.524,8.399,8.675,12.332c1.424,1.777,3.578,2.811,5.853,2.811c0.016,0,0.033,0,0.049,0    c2.294-0.015,4.455-1.079,5.865-2.888l19.526-25.036c1.215-1.558,1.767-3.532,1.534-5.494    c-3.432-28.998,4.565-57.644,22.52-80.663c17.998-23.076,43.76-37.562,71.684-41.397    C334.752,45.482,296.252,60.992,271.927,92.178z"/>
	</g>
	<g>
		<path style="fill:#6ABA0F;" d="M326.108,145.224c-28.205,7.53-51.863,25.555-66.616,50.752c-0.999,1.705-2.629,2.947-4.538,3.457    l-9.907,2.645c0.398,1.708,1.38,3.242,2.811,4.31c1.31,0.977,2.886,1.489,4.485,1.489c0.646,0,1.296-0.083,1.934-0.254    l30.676-8.19c1.909-0.509,3.539-1.752,4.538-3.457c14.753-25.198,38.411-43.222,66.616-50.752    c4.519-1.207,9.065-2.103,13.613-2.727C355.432,140.524,340.637,141.346,326.108,145.224z"/>
		<path style="fill:#6ABA0F;" d="M490.909,165.011l-0.071-0.266c-8.521-31.917-28.884-58.734-57.337-75.511    c-23.913-14.1-51.258-19.771-78.388-16.483c16.884,2.058,33.318,7.597,48.388,16.483c28.453,16.777,48.815,43.594,57.337,75.511    l0.071,0.266c0.662,2.503,0.644,5.001,0.043,7.31c1.914,1.847,3.774,3.768,5.571,5.769c4.503,5.013,11.512,6.231,17.436,3.031    C489.826,177.953,492.622,171.492,490.909,165.011z"/>
	</g>
	<path style="fill:#6ABA0F;" d="M400.244,240.198c-2.133-25.624-14.022-48.975-33.478-65.751   c-22.083-19.044-51.134-26.578-78.735-22.36c17.627,2.705,34.608,10.177,48.735,22.36c19.455,16.776,31.345,40.127,33.478,65.751   c1.762,21.158-3.304,41.886-14.369,59.605c-0.005,0.022-0.009,0.044-0.014,0.066c-1.303,5.747,1.474,11.585,6.753,14.199   c1.838,0.91,3.771,1.351,5.674,1.351c3.6,0,7.084-1.581,9.571-4.555l0.158-0.19C394.487,290.883,402.381,265.854,400.244,240.198z"/>
	<path style="fill:#B7692E;" d="M278.359,164.755c-0.819-1.909-2.394-3.392-4.349-4.097s-4.113-0.567-5.962,0.38l-17.552,8.99   c8.058,20.63,35.406,97.963,31.142,187.485c-4.881,102.49-28.528,148.564-29.532,150.476c-1.297,2.466-3.854,4.011-6.64,4.011h30   c2.786,0,5.343-1.545,6.64-4.011c1.004-1.912,24.651-47.986,29.532-150.476C316.523,254.959,279.92,168.391,278.359,164.755z"/>
	<path style="fill:#C4735D;" d="M237.97,165.053c-19.478,0-35.323,15.846-35.323,35.324s15.846,35.324,35.323,35.324   s35.323-15.846,35.323-35.324S257.448,165.053,237.97,165.053z"/>
	<path style="fill:#C4735D;" d="M279.706,137.232c-19.476,0.229-35.135,16.26-34.906,35.736   c0.229,19.476,16.26,35.135,35.736,34.906c19.476-0.229,35.136-16.26,34.907-35.736S299.182,137.003,279.706,137.232z"/>
	<path style="fill:#B1624E;" d="M279.706,137.232c-5.211,0.061-10.143,1.263-14.577,3.35c11.859,5.59,20.149,17.591,20.313,31.557   c0.168,14.265-8.193,26.673-20.33,32.387c4.679,2.206,9.913,3.414,15.423,3.35c19.476-0.229,35.135-16.26,34.907-35.736   S299.182,137.003,279.706,137.232z"/>
	<path style="fill:#B1624E;" d="M237.97,165.053c-5.361,0-10.444,1.206-15,3.353c11.997,5.651,20.323,17.855,20.323,31.971   s-8.326,26.32-20.323,31.971c4.556,2.146,9.639,3.353,15,3.353c19.478,0,35.323-15.846,35.323-35.324   S257.448,165.053,237.97,165.053z"/>
	<path style="fill:#B7692E;" d="M261.828,289.117c-3.053,0-5.768-2.174-6.345-5.284c-0.65-3.508,1.666-6.88,5.175-7.53l31.949-5.924   c3.503-0.649,6.88,1.666,7.53,5.175c0.651,3.508-1.666,6.88-5.174,7.53l-31.949,5.924   C262.615,289.081,262.218,289.117,261.828,289.117z"/>
	<path style="fill:#B7692E;" d="M263.597,333.725c-3.298,0-6.113-2.513-6.425-5.862c-0.331-3.553,2.281-6.701,5.834-7.032   l33.678-3.136c3.559-0.332,6.7,2.281,7.032,5.834c0.331,3.553-2.281,6.701-5.834,7.032l-33.678,3.136   C264,333.716,263.797,333.725,263.597,333.725z"/>
	<path style="fill:#B7692E;" d="M263.601,379.809c-3.493,0-6.367-2.787-6.456-6.298c-0.09-3.567,2.729-6.531,6.296-6.621   l35.176-0.884c3.607-0.088,6.532,2.729,6.621,6.296c0.089,3.567-2.73,6.531-6.297,6.621l-35.176,0.884   C263.712,379.808,263.656,379.809,263.601,379.809z"/>
	<path style="fill:#B7692E;" d="M254.987,426.811c-3.493,0-6.367-2.787-6.456-6.298c-0.09-3.567,2.729-6.531,6.296-6.621   l35.176-0.884c3.551-0.079,6.531,2.729,6.621,6.296c0.089,3.567-2.73,6.531-6.297,6.621l-35.176,0.884   C255.096,426.81,255.041,426.811,254.987,426.811z"/>
	<path style="fill:#B7692E;" d="M282.356,473.335c-0.018,0-0.036,0-0.055,0l-48.802-0.405c-3.568-0.029-6.436-2.946-6.406-6.514   c0.029-3.55,2.916-6.407,6.459-6.407c0.019,0,0.037,0,0.055,0l48.802,0.405c3.568,0.029,6.436,2.946,6.407,6.514   C288.786,470.478,285.899,473.335,282.356,473.335z"/>
	<path style="fill:#C4735D;" d="M233.121,113.569c-19.478,0-35.324,15.846-35.324,35.324s15.846,35.324,35.324,35.324   s35.324-15.846,35.324-35.324S252.599,113.569,233.121,113.569z"/>
	<path style="fill:#B1624E;" d="M233.121,113.569c-5.361,0-10.444,1.206-15,3.353c11.997,5.651,20.324,17.855,20.324,31.971   s-8.327,26.32-20.324,31.971c4.556,2.146,9.639,3.353,15,3.353c19.478,0,35.324-15.846,35.324-35.324   S252.599,113.569,233.121,113.569z"/>
</g>
</svg>
